<svg width="17" height="16" viewBox="0 0 17 16" fill="none" xmlns="http://www.w3.org/2000/svg">
<path d="M12.6068 4.97467L4.46347 1.39C4.38286 1.35438 4.29598 1.3351 4.20787 1.33327C4.11976 1.33144 4.03216 1.34709 3.95014 1.37933C3.86818 1.41172 3.79346 1.46004 3.73029 1.52149C3.66713 1.58294 3.61677 1.6563 3.58214 1.73733L1.58214 6.404C1.51249 6.56649 1.51024 6.74999 1.57588 6.91414C1.64151 7.0783 1.76966 7.20966 1.93214 7.27933L6.57014 9.26667L5.74347 11.3333H2.86147V9.33333H1.52814V14.6667H2.86147V12.6667H5.74347C6.29214 12.6667 6.77814 12.3373 6.9808 11.828L7.79547 9.792L10.0748 10.7687C10.2366 10.8382 10.4193 10.8409 10.583 10.7762C10.7467 10.7115 10.8782 10.5846 10.9488 10.4233L12.9488 5.852C13.0196 5.69028 13.0233 5.5071 12.9592 5.34263C12.8951 5.17816 12.7683 5.04583 12.6068 4.97467ZM13.4815 10.9147L12.2428 10.42L13.5748 7.08667L14.8135 7.58067L13.4815 10.9147Z" fill="white"/>
</svg>
