<svg width="17" height="16" viewBox="0 0 17 16" fill="none" xmlns="http://www.w3.org/2000/svg">
<path d="M8.77214 2L15.1228 13C15.1813 13.1013 15.2121 13.2163 15.2121 13.3333C15.2121 13.4504 15.1813 13.5653 15.1228 13.6667C15.0643 13.768 14.9801 13.8522 14.8788 13.9107C14.7775 13.9692 14.6625 14 14.5455 14H1.84414C1.72712 14 1.61216 13.9692 1.51081 13.9107C1.40947 13.8522 1.32531 13.768 1.2668 13.6667C1.20829 13.5653 1.17749 13.4504 1.17749 13.3333C1.17749 13.2163 1.2083 13.1013 1.26681 13L7.61747 2C7.67599 1.89866 7.76015 1.81451 7.86149 1.756C7.96283 1.6975 8.07779 1.66669 8.19481 1.66669C8.31183 1.66669 8.42678 1.6975 8.52813 1.756C8.62947 1.81451 8.71363 1.89866 8.77214 2ZM7.52814 10.6667V12H8.86147V10.6667H7.52814ZM7.52814 6V9.33333H8.86147V6H7.52814Z" fill="white"/>
</svg>
