<svg width="17" height="16" viewBox="0 0 17 16" fill="none" xmlns="http://www.w3.org/2000/svg">
<path d="M7.52816 11.3333H8.86149L9.06149 10.3333C9.19482 10.2778 9.31994 10.2196 9.43682 10.1587C9.55371 10.0978 9.67305 10.0227 9.79482 9.93333L10.7615 10.2333L11.4282 9.1L10.6615 8.43333C10.6837 8.27778 10.6948 8.13333 10.6948 8C10.6948 7.86667 10.6837 7.72222 10.6615 7.56667L11.4282 6.9L10.7615 5.76667L9.79482 6.06667C9.6726 5.97778 9.55327 5.90267 9.43682 5.84133C9.32038 5.78 9.19527 5.72178 9.06149 5.66667L8.86149 4.66667H7.52816L7.32816 5.66667C7.19482 5.72222 7.06994 5.78067 6.95349 5.842C6.83705 5.90333 6.71749 5.97822 6.59482 6.06667L5.62816 5.76667L4.96149 6.9L5.72816 7.56667C5.70594 7.72222 5.69482 7.86667 5.69482 8C5.69482 8.13333 5.70594 8.27778 5.72816 8.43333L4.96149 9.1L5.62816 10.2333L6.59482 9.93333C6.71705 10.0222 6.8366 10.0973 6.95349 10.1587C7.07038 10.22 7.19527 10.2782 7.32816 10.3333L7.52816 11.3333ZM8.19482 9.33333C7.82816 9.33333 7.51438 9.20289 7.25349 8.942C6.9926 8.68111 6.86194 8.36711 6.86149 8C6.86105 7.63289 6.99171 7.31911 7.25349 7.05867C7.51527 6.79822 7.82905 6.66756 8.19482 6.66667C8.5606 6.66578 8.8746 6.79644 9.13682 7.05867C9.39905 7.32089 9.52949 7.63467 9.52816 8C9.52682 8.36533 9.39638 8.67933 9.13682 8.942C8.87727 9.20467 8.56327 9.33511 8.19482 9.33333ZM3.52816 14C3.16149 14 2.84771 13.8696 2.58682 13.6087C2.32594 13.3478 2.19527 13.0338 2.19482 12.6667V3.33333C2.19482 2.96667 2.32549 2.65289 2.58682 2.392C2.84816 2.13111 3.16194 2.00044 3.52816 2H12.8615C13.2282 2 13.5422 2.13067 13.8035 2.392C14.0648 2.65333 14.1953 2.96711 14.1948 3.33333V12.6667C14.1948 13.0333 14.0644 13.3473 13.8035 13.6087C13.5426 13.87 13.2286 14.0004 12.8615 14H3.52816Z" fill="white"/>
</svg>
