<svg width="17" height="16" viewBox="0 0 17 16" fill="none" xmlns="http://www.w3.org/2000/svg">
<path d="M10.8615 11.3333V12.6667H1.52814V11.3333C1.52814 11.3333 1.52814 8.66667 6.1948 8.66667C10.8615 8.66667 10.8615 11.3333 10.8615 11.3333ZM8.52814 5C8.52814 4.53851 8.39129 4.08738 8.1349 3.70367C7.87851 3.31995 7.51409 3.02088 7.08773 2.84428C6.66137 2.66768 6.19222 2.62147 5.73959 2.7115C5.28697 2.80153 4.87121 3.02376 4.54489 3.35008C4.21857 3.67641 3.99634 4.09217 3.90631 4.54479C3.81627 4.99741 3.86248 5.46657 4.03909 5.89293C4.21569 6.31929 4.51476 6.68371 4.89847 6.94009C5.28219 7.19649 5.73331 7.33333 6.1948 7.33333C6.81364 7.33333 7.40714 7.0875 7.84472 6.64991C8.2823 6.21233 8.52814 5.61884 8.52814 5ZM10.8215 8.66667C11.2313 8.98383 11.5667 9.38695 11.8039 9.84767C12.0412 10.3084 12.1746 10.8155 12.1948 11.3333V12.6667H14.8615V11.3333C14.8615 11.3333 14.8615 8.91333 10.8215 8.66667ZM10.1948 2.66667C9.73599 2.66453 9.28733 2.80169 8.90814 3.06C9.3131 3.62582 9.53084 4.30419 9.53084 5C9.53084 5.69581 9.3131 6.37417 8.90814 6.94C9.28733 7.19831 9.73599 7.33547 10.1948 7.33333C10.8136 7.33333 11.4071 7.0875 11.8447 6.64991C12.2823 6.21233 12.5281 5.61884 12.5281 5C12.5281 4.38116 12.2823 3.78767 11.8447 3.35008C11.4071 2.9125 10.8136 2.66667 10.1948 2.66667Z" fill="white"/>
</svg>
